<svg width="1628" height="1705" xmlns="http://www.w3.org/2000/svg" xmlns:xlink="http://www.w3.org/1999/xlink" xml:space="preserve" overflow="hidden"><g transform="translate(-3565 37)"><path d="M5101.22 874.368C5092.12 990.657 5055.94 1103.2 4995.6 1203" stroke="#156082" stroke-width="81.3542" stroke-linecap="round" stroke-linejoin="round" stroke-miterlimit="10" fill="none" fill-rule="evenodd"/><path d="M4935.66 883.214C4926.61 961.702 4901.66 1037.53 4862.35 1106.06" stroke="#156082" stroke-width="81.3542" stroke-linecap="round" stroke-linejoin="round" stroke-miterlimit="10" fill="none" fill-rule="evenodd"/><path d="M0 0 115.729 349.479" stroke="#156082" stroke-width="81.3542" stroke-linecap="round" stroke-miterlimit="8" fill="none" fill-rule="evenodd" transform="matrix(-6.12323e-17 -1 -1 6.12323e-17 5149.98 1071.23)"/><path d="M3657.78 757.632C3666.88 641.343 3703.05 528.799 3763.4 429.003" stroke="#156082" stroke-width="81.3542" stroke-linecap="round" stroke-linejoin="round" stroke-miterlimit="10" fill="none" fill-rule="evenodd"/><path d="M3823.34 749.786C3832.39 671.297 3857.34 595.475 3896.65 526.938" stroke="#156082" stroke-width="81.3542" stroke-linecap="round" stroke-linejoin="round" stroke-miterlimit="10" fill="none" fill-rule="evenodd"/><path d="M0 0 115.729 349.479" stroke="#156082" stroke-width="81.3542" stroke-linecap="round" stroke-miterlimit="8" fill="none" fill-rule="evenodd" transform="matrix(-6.12323e-17 -1 -1 6.12323e-17 3958.98 677.229)"/><path d="M4546.59 1520.37C4433.16 1547.64 4314.92 1547.97 4201.33 1521.34" stroke="#156082" stroke-width="81.3542" stroke-linecap="round" stroke-linejoin="round" stroke-miterlimit="10" fill="none" fill-rule="evenodd"/><path d="M4487.44 1365.2C4410.01 1380.84 4330.21 1380.55 4252.91 1364.34" stroke="#156082" stroke-width="81.3542" stroke-linecap="round" stroke-linejoin="round" stroke-miterlimit="10" fill="none" fill-rule="evenodd"/><path d="M0 0 115.729 349.479" stroke="#156082" stroke-width="81.3542" stroke-linecap="round" stroke-miterlimit="8" fill="none" fill-rule="evenodd" transform="matrix(0.951057 -0.309017 -0.309017 -0.951057 4374.39 1627.01)"/><path d="M4211.43 110.993C4324.87 83.7218 4443.11 83.3894 4556.69 110.023" stroke="#156082" stroke-width="81.3542" stroke-linecap="round" stroke-linejoin="round" stroke-miterlimit="10" fill="none" fill-rule="evenodd"/><path d="M4270.59 266.159C4348.01 250.522 4427.81 250.814 4505.12 267.016" stroke="#156082" stroke-width="81.3542" stroke-linecap="round" stroke-linejoin="round" stroke-miterlimit="10" fill="none" fill-rule="evenodd"/><path d="M0 0 115.729 349.479" stroke="#156082" stroke-width="81.3542" stroke-linecap="round" stroke-miterlimit="8" fill="none" fill-rule="evenodd" transform="matrix(0.951057 -0.309017 -0.309017 -0.951057 4381.57 372.485)"/><path d="M4100.38 1484.28C3992.58 1439.67 3896.73 1370.44 3820.49 1282.13" stroke="#156082" stroke-width="81.3542" stroke-linecap="round" stroke-linejoin="round" stroke-miterlimit="10" fill="none" fill-rule="evenodd"/><path d="M4143.73 1323.98C4071.9 1291.12 4007.51 1243.98 3954.49 1185.43" stroke="#156082" stroke-width="81.3542" stroke-linecap="round" stroke-linejoin="round" stroke-miterlimit="10" fill="none" fill-rule="evenodd"/><path d="M0 0 115.729 349.479" stroke="#156082" stroke-width="81.3542" stroke-linecap="round" stroke-miterlimit="8" fill="none" fill-rule="evenodd" transform="matrix(0.951057 0.309017 0.309017 -0.951057 3898.38 1469.34)"/><path d="M4657.64 147.077C4765.44 191.688 4861.3 260.92 4937.53 349.23" stroke="#156082" stroke-width="81.3542" stroke-linecap="round" stroke-linejoin="round" stroke-miterlimit="10" fill="none" fill-rule="evenodd"/><path d="M4614.3 307.379C4686.13 340.237 4750.51 387.377 4803.53 445.926" stroke="#156082" stroke-width="81.3542" stroke-linecap="round" stroke-linejoin="round" stroke-miterlimit="10" fill="none" fill-rule="evenodd"/><path d="M0 0 115.729 349.479" stroke="#156082" stroke-width="81.3542" stroke-linecap="round" stroke-miterlimit="8" fill="none" fill-rule="evenodd" transform="matrix(0.951057 0.309017 0.309017 -0.951057 4641.58 458.631)"/><path d="M3760.6 1192.82C3699.61 1093.36 3662.76 981.011 3652.99 864.756" stroke="#156082" stroke-width="81.3542" stroke-linecap="round" stroke-linejoin="round" stroke-miterlimit="10" fill="none" fill-rule="evenodd"/><path d="M3889.89 1088.61C3851.09 1019.8 3826.71 943.822 3818.23 865.291" stroke="#156082" stroke-width="81.3542" stroke-linecap="round" stroke-linejoin="round" stroke-miterlimit="10" fill="none" fill-rule="evenodd"/><path d="M0 0 115.729 349.479" stroke="#156082" stroke-width="81.3542" stroke-linecap="round" stroke-miterlimit="8" fill="none" fill-rule="evenodd" transform="matrix(0.587785 0.809017 0.809017 -0.587785 3605.96 1061.99)"/><path d="M4997.42 438.544C5058.41 537.997 5095.27 650.349 5105.04 766.604" stroke="#156082" stroke-width="81.3542" stroke-linecap="round" stroke-linejoin="round" stroke-miterlimit="10" fill="none" fill-rule="evenodd"/><path d="M4868.13 542.752C4906.93 611.556 4931.31 687.538 4939.79 766.069" stroke="#156082" stroke-width="81.3542" stroke-linecap="round" stroke-linejoin="round" stroke-miterlimit="10" fill="none" fill-rule="evenodd"/><path d="M0 0 115.729 349.479" stroke="#156082" stroke-width="81.3542" stroke-linecap="round" stroke-miterlimit="8" fill="none" fill-rule="evenodd" transform="matrix(0.587785 0.809017 0.809017 -0.587785 4801.31 681.157)"/><path d="M4928.79 1287.28C4853.05 1376.02 4757.59 1445.79 4650.04 1491.01" stroke="#156082" stroke-width="81.3542" stroke-linecap="round" stroke-linejoin="round" stroke-miterlimit="10" fill="none" fill-rule="evenodd"/><path d="M4789.73 1196.52C4736.28 1254.68 4671.55 1301.35 4599.49 1333.68" stroke="#156082" stroke-width="81.3542" stroke-linecap="round" stroke-linejoin="round" stroke-miterlimit="10" fill="none" fill-rule="evenodd"/><path d="M0 0 115.729 349.479" stroke="#156082" stroke-width="81.3542" stroke-linecap="round" stroke-miterlimit="8" fill="none" fill-rule="evenodd" transform="matrix(0.587785 -0.809017 -0.809017 -0.587785 4852.16 1474.78)"/><path d="M3829.24 344.076C3904.97 255.339 4000.44 185.569 4107.98 140.353" stroke="#156082" stroke-width="81.3542" stroke-linecap="round" stroke-linejoin="round" stroke-miterlimit="10" fill="none" fill-rule="evenodd"/><path d="M3968.3 434.837C4021.74 376.678 4086.47 330.01 4158.54 297.677" stroke="#156082" stroke-width="81.3542" stroke-linecap="round" stroke-linejoin="round" stroke-miterlimit="10" fill="none" fill-rule="evenodd"/><path d="M0 0 115.729 349.479" stroke="#156082" stroke-width="81.3542" stroke-linecap="round" stroke-miterlimit="8" fill="none" fill-rule="evenodd" transform="matrix(0.587785 -0.809017 -0.809017 -0.587785 4120.58 455.625)"/></g></svg>